<?xml version="1.0" standalone="no"?>
<!DOCTYPE svg PUBLIC "-//W3C//DTD SVG 20010904//EN"
 "http://www.w3.org/TR/2001/REC-SVG-20010904/DTD/svg10.dtd">
<svg version="1.0" xmlns="http://www.w3.org/2000/svg"
 width="1405.000000pt" height="1405.000000pt" viewBox="0 0 1405.000000 1405.000000"
 preserveAspectRatio="xMidYMid meet">
<metadata>
Created by potrace 1.11, written by Peter Selinger 2001-2013
</metadata>
<g transform="translate(0.000000,1405.000000) scale(0.100000,-0.100000)"
fill="#000000" stroke="none">
<path d="M6607 12717 l-44 -52 44 -63 45 -62 0 -1036 0 -1035 -81 -81 -81 -81
-1478 0 -1478 0 -64 46 -63 46 -26 -18 c-14 -11 -39 -33 -55 -50 l-29 -31 0
-496 1 -495 28 -31 c16 -16 41 -38 55 -49 l26 -18 61 44 62 45 1478 0 1479 0
82 -82 82 -81 0 -3009 0 -3009 47 -20 c161 -70 358 -81 522 -32 65 20 98 47
153 128 137 201 358 482 475 606 l82 87 0 2616 0 2617 88 90 89 89 1469 0
1469 -1 59 -44 c65 -49 59 -50 130 13 l37 32 1 501 2 502 -53 48 -53 48 -65
-46 -65 -46 -1480 0 -1480 1 -74 73 -74 73 0 1044 0 1044 28 37 c16 20 37 48
46 63 l18 27 -49 51 -48 50 -636 0 -637 0 -45 -53z"/>
<path d="M11957 5774 c-1 -1 -66 -5 -144 -8 -78 -4 -151 -9 -161 -11 -10 -1
-49 -6 -87 -10 -39 -3 -81 -8 -95 -10 -14 -2 -70 -11 -125 -20 -55 -8 -111
-17 -125 -20 -14 -3 -41 -8 -60 -11 -19 -4 -80 -17 -135 -30 -55 -12 -111 -25
-125 -28 -125 -24 -498 -147 -725 -238 -196 -78 -663 -308 -673 -330 -2 -5 -8
-8 -13 -8 -14 0 -194 -109 -334 -203 -524 -349 -1019 -807 -1441 -1334 -150
-187 -145 -181 -261 -351 -53 -79 -108 -152 -122 -163 -79 -63 -311 -82 -511
-43 -34 6 -182 74 -245 111 -224 134 -634 328 -870 413 -33 12 -73 28 -90 35
-60 26 -488 161 -540 171 -11 2 -38 8 -60 14 -22 6 -58 15 -80 20 -22 5 -49
11 -60 14 -64 15 -245 54 -275 60 -19 3 -46 8 -60 11 -111 23 -419 64 -590 80
-36 3 -83 8 -105 10 -235 22 -830 22 -1045 0 -19 -2 -75 -6 -125 -10 -49 -3
-97 -8 -105 -10 -8 -2 -42 -6 -75 -10 -128 -13 -452 -69 -464 -80 -1 -2 0 -9
4 -15 6 -10 94 -8 199 5 199 25 1000 26 1326 1 25 -2 90 -7 145 -11 55 -4 107
-9 115 -10 8 -2 51 -6 95 -10 44 -4 94 -9 110 -11 17 -3 48 -7 70 -9 34 -5 95
-14 275 -40 31 -5 196 -33 230 -40 14 -2 39 -7 55 -11 424 -83 952 -239 1250
-369 17 -7 53 -23 80 -35 108 -47 214 -97 290 -136 144 -74 185 -96 185 -100
0 -2 -30 8 -67 23 -331 126 -993 315 -1353 387 -14 3 -90 18 -170 35 -80 16
-158 32 -175 34 -16 3 -75 13 -130 22 -55 9 -111 18 -125 21 -14 2 -43 6 -65
9 -22 3 -74 10 -115 15 -99 13 -133 17 -205 25 -33 4 -71 8 -85 10 -14 2 -65
7 -115 10 -49 4 -106 9 -125 11 -262 27 -954 20 -1180 -11 -19 -3 -62 -7 -95
-10 -33 -3 -71 -7 -85 -9 -14 -2 -47 -7 -73 -11 -27 -4 -58 -8 -70 -11 -12 -2
-39 -6 -62 -9 -22 -3 -60 -10 -85 -15 -25 -5 -63 -12 -85 -16 -22 -4 -44 -8
-50 -10 -5 -1 -53 -12 -105 -23 -83 -18 -410 -109 -418 -116 -1 -1 1 -10 4
-19 7 -18 25 -18 112 -1 10 1 44 6 77 9 33 4 71 8 85 11 14 2 52 7 85 10 33 3
71 8 85 10 23 3 65 7 215 20 28 3 75 7 105 10 30 2 93 7 140 10 47 4 110 8
140 10 307 24 1086 24 1275 0 17 -2 66 -7 110 -10 44 -3 91 -7 105 -9 14 -2
52 -7 85 -11 120 -12 380 -58 390 -68 7 -7 6 -8 -1 -4 -26 15 -719 24 -939 13
-258 -13 -505 -32 -560 -42 -11 -2 -49 -6 -86 -9 -36 -3 -76 -7 -88 -10 -13
-2 -49 -7 -80 -10 -31 -4 -63 -8 -71 -10 -8 -2 -35 -7 -60 -10 -25 -3 -56 -8
-70 -10 -59 -12 -76 -15 -115 -20 -22 -4 -56 -10 -75 -15 -19 -5 -48 -12 -65
-14 -49 -9 -55 -11 -210 -46 -402 -94 -825 -257 -1120 -433 -135 -81 -169
-109 -194 -162 -59 -126 21 -274 195 -361 68 -34 79 -36 181 -39 121 -4 114
-5 373 84 96 33 245 78 330 100 144 37 462 104 541 115 19 2 77 11 129 20 102
16 172 25 235 31 22 3 67 7 100 11 216 23 374 29 755 29 403 0 532 -5 755 -30
28 -3 75 -8 105 -10 47 -4 101 -11 330 -41 30 -4 87 -13 240 -39 92 -16 247
-46 278 -54 20 -5 51 -12 67 -14 17 -3 71 -15 120 -27 50 -12 97 -23 105 -25
69 -16 321 -84 430 -116 224 -67 647 -212 662 -227 4 -4 -11 -33 -33 -66 -21
-32 -39 -61 -39 -65 0 -4 24 -33 53 -64 l52 -56 615 1 615 0 58 56 c31 31 57
61 57 67 0 5 -22 45 -49 88 l-49 79 29 50 c96 162 232 331 417 517 155 156
173 172 319 293 120 99 250 196 398 295 184 123 278 181 450 275 39 21 77 42
85 47 39 25 503 251 516 251 2 0 29 12 61 26 247 111 612 244 863 314 128 36
208 56 380 94 107 24 211 47 230 50 19 3 71 12 115 20 80 16 236 40 330 51 28
4 60 8 72 10 12 2 57 7 100 10 43 4 86 9 95 11 9 1 79 5 155 9 274 12 359 16
388 20 17 2 47 7 68 10 122 17 284 151 357 295 43 85 35 171 -22 236 -75 85
-196 122 -463 141 -189 14 -733 7 -870 -11 -16 -2 -61 -7 -100 -10 -81 -8
-174 -19 -255 -31 -14 -2 -45 -6 -70 -9 -25 -3 -56 -8 -70 -11 -13 -2 -42 -7
-64 -11 -22 -3 -43 -7 -46 -9 -3 -2 -26 -6 -50 -9 -25 -3 -99 -17 -165 -32
-66 -14 -149 -32 -185 -40 -35 -8 -78 -19 -96 -24 -17 -6 -40 -12 -50 -14 -94
-19 -376 -106 -593 -183 -415 -147 -928 -391 -1286 -613 -19 -12 -35 -20 -35
-17 0 15 531 355 652 418 15 8 73 39 130 70 313 171 796 385 1113 494 44 15
130 45 190 65 187 64 527 160 730 206 44 10 82 19 85 19 3 1 23 5 45 10 22 4
49 10 60 12 11 3 65 13 120 24 55 10 113 21 129 24 24 5 160 27 241 39 11 2
37 4 58 5 30 1 37 5 37 21 0 19 -21 29 -65 29 -11 0 -81 0 -155 0 -74 0 -160
-1 -190 -4 -30 -2 -86 -7 -125 -10 -97 -8 -145 -14 -260 -31 -142 -21 -152
-23 -235 -39 -41 -8 -86 -16 -100 -19 -48 -8 -326 -77 -429 -107 -445 -129
-957 -340 -1336 -549 -33 -18 -80 -44 -105 -58 -340 -187 -734 -447 -1055
-696 -214 -167 -513 -419 -632 -535 -23 -23 -24 -7 0 20 153 176 210 239 368
397 103 105 256 248 385 362 71 62 260 215 374 302 711 540 1487 923 2257
1114 100 25 193 47 205 49 13 3 46 9 73 15 75 16 96 19 140 25 22 3 65 10 95
15 30 5 78 12 105 15 28 3 59 7 70 10 11 2 61 7 110 11 123 9 120 8 123 32 3
19 -2 22 -35 23 -21 0 -60 2 -86 3 -26 1 -49 1 -50 0z"/>
</g>
</svg>
